# AST/ASF file generated using VICON BodyLanguage
# -----------------------------------------------
:version 1.10
:name VICON
:units
  mass 1.0
  length 0.45
  angle deg
:documentation
   .ast/.asf automatically generated from VICON data using
   VICON BodyBuilder and BodyLanguage model FoxedUp or BRILLIANT.MOD
:root
   order TX TY TZ RX RY RZ
   axis XYZ
   position 0 0 0  
   orientation 0 0 0 
:bonedata
  begin
     id 1 
     name lhipjoint
     direction 0.78388 -0.462562 0.414208 
     length 3.01181 
     axis 0 0 0  XYZ
  end
  begin
     id 2 
     name lfemur
     direction 0.34202 -0.939693 0  
     length 6.04673  
     axis 0 0 20  XYZ
    dof rx ry rz
    limits (-160.0 20.0)
           (-70.0 70.0)
           (-60.0 70.0)
  end
  begin
     id 3 
     name ltibia
     direction 0.34202 -0.939693 0   
     length 7.211   
     axis 0 0 20   XYZ
    dof rx
    limits (-10.0 170.0)
  end
  begin
     id 4 
     name lfoot
     direction 0.121887 -0.334882 0.934344   
     length 2.13567   
     axis -90 7.62852e-016 20   XYZ
    dof rx rz
    limits (-45.0 90.0)
           (-70.0 20.0)
  end
  begin
     id 5 
     name ltoes
     direction 1.53555e-011 -4.2179e-011 1   
     length 1.05957   
     axis -90 7.62852e-016 20   XYZ
    dof rx
    limits (-90.0 20.0)
  end
  begin
     id 6 
     name rhipjoint
     direction -0.769387 -0.475875 0.426129   
     length 2.92756  
     axis 0 0 0  XYZ 
  end
  begin
     id 7 
     name rfemur
     direction -0.34202 -0.939693 0   
     length 6.35468   
     axis 0 0 -20   XYZ
    dof rx ry rz
    limits (-160.0 20.0)
           (-70.0 70.0)
           (-70.0 60.0)
  end
  begin
     id 8 
     name rtibia
     direction -0.34202 -0.939693 0   
     length 7.37886   
     axis 0 0 -20   XYZ
    dof rx
    limits (-10.0 170.0)
 end
 begin
     id 9 
     name rfoot
     direction -0.101763 -0.279592 0.954711   
     length 2.21478  
     axis -90 -7.62852e-016 -20   XYZ
    dof rx rz
    limits (-45.0 90.0)
           (-20.0 70.0)
  end
  begin
     id 10 
     name rtoes
     direction -1.53494e-011 -4.21851e-011 1   
     length 1.10506   
     axis -90 -7.62852e-016 -20   XYZ
    dof rx
    limits (-90.0 20.0)
  end
  begin
     id 11 
     name lowerback
     direction 0.00747405 0.999267 0.0375481   
     length 2.13259   
     axis 0 0 0   XYZ
    dof rx ry rz
    limits (-20.0 45.0)
           (-30.0 30.0)
           (-30.0 30.0)
  end
  begin
     id 12 
     name upperback
     direction 0.00661626 0.996177 0.0871029   
     length 2.10528   
     axis 0 0 0   XYZ
    dof rx ry rz
    limits (-20.0 45.0)
           (-30.0 30.0)
           (-30.0 30.0)
  end
  begin
     id 13 
     name thorax
     direction 0.00320659 0.997679 0.0680167   
     length 2.11338   
     axis 0 0 0   XYZ
    dof rx ry rz
    limits (-20.0 45.0)
           (-30.0 30.0)
           (-30.0 30.0)
  end
  begin
     id 14 
     name lowerneck
     direction 0.0374841 0.973033 0.227602   
     length 1.42765   
     axis 0 0 0   XYZ
    dof rx ry rz
    limits (-20.0 45.0)
           (-30.0 30.0)
           (-30.0 30.0)
  end
  begin
     id 15 
     name upperneck
     direction 0.00481585 0.989155 -0.146795   
     length 1.47593   
     axis 0 0 0   XYZ
    dof rx ry rz
    limits (-20.0 45.0)
           (-30.0 30.0)
           (-30.0 30.0)
  end
  begin
     id 16
     name head
     direction -0.00292522 0.997206 -0.0746423  
     length 1.48116  
     axis 0 0 0   XYZ
    dof rx ry rz
    limits (-20.0 45.0)
           (-30.0 30.0)
           (-30.0 30.0)
  end
  begin
     id 17 
     name lclavicle
     direction 0.951444 0.305606 0.0368784  
     length 3.01855  
     axis 0 0 0   XYZ
    dof ry rz
    limits (-20.0 10.0)
           (0.0 20.0)
  end
  begin
     id 18 
     name lhumerus
     direction 1 -4.48977e-011 2.61664e-027   
     length 5.52731   
     axis 180 -30 -90   XYZ
    dof rx ry rz
    limits (-60.0 90.0)
           (-90.0 90.0)
           (-90.0 90.0)
  end
  begin
     id 19
     name lradius
     direction 1 -4.48944e-011 8.22157e-027   
     length 3.11059   
     axis 180 -30 -90   XYZ
    dof rx
    limits (-10.0 170.0)
  end
  begin
     id 20
     name lwrist
     direction 1 -4.48976e-011 1.5779e-026   
     length 1.5553   
     axis -1.15221e-014 90 90   XYZ
    dof ry
    limits (-180.0 0.0)
 end
  begin
     id 21 
     name lhand
     direction 1 -4.49025e-011 3.1558e-026   
     length 0.419626   
     axis -2.01367e-014 90 90   XYZ
    dof rx rz
    limits (-90.0 90.0)
           (-45.0 45.0)
  end
  begin
     id 22 
     name lfingers
     direction 1 -4.4904e-011 6.31161e-026   
     length 0.338313   
     axis -4.02734e-014 90 90   XYZ
    dof rx
    limits (0.0 90.0)
  end
  begin
     id 23
     name lthumb
     direction 0.707107 -6.35004e-011 0.707107   
     length 0.485752   
     axis -90 45 2.85299e-015   XYZ
    dof rx rz
    limits (-45.0 45.0)
           (-45.0 45.0)
  end
  begin
     id 24 
     name rclavicle
     direction -0.968876 0.223791 0.105816   
     length 3.04177  
     axis 0 0 0   XYZ 
    dof ry rz
    limits (-10.0 20.0)
           (-20.0 0.0)
  end
  begin
     id 25 
     name rhumerus
     direction -1 -4.48962e-011 -1.01384e-027  
     length 5.25396   
     axis 180 30 90   XYZ
    dof rx ry rz
    limits (-90.0 60.0)
           (-90.0 90.0)
           (-90.0 90.0)
  end
  begin
     id 26 
     name rradius
     direction -1 -4.48955e-011 8.88542e-027   
     length 3.10567   
     axis 180 30 90   XYZ
    dof rx
    limits (-10.0 170.0)
  end
  begin
     id 27 
     name rwrist
     direction -1 -4.48994e-011 1.5779e-026   
     length 1.55283   
     axis -1.15221e-014 -90 -90   XYZ
    dof ry
    limits (-180.0 0.0)
  end
  begin
     id 28
     name rhand
     direction -1 -4.48891e-011 3.1558e-026   
     length 0.498676   
     axis -2.01367e-014 -90 -90   XYZ
    dof rx rz
    limits (-90.0 90.0)
           (-45.0 45.0)
  end
  begin
     id 29
     name rfingers
     direction -1 -4.48972e-011 6.31161e-026   
     length 0.402045   
     axis -4.02734e-014 -90 -90   XYZ
    dof rx
    limits (0.0 90.0)
  end
  begin
     id 30
     name rthumb
     direction -0.707107 -6.34849e-011 0.707107   
     length 0.577259   
     axis -90 -45 -2.85299e-015   XYZ
    dof rx rz
    limits (-45.0 45.0)
           (-45.0 45.0)
  end
:hierarchy
  begin
    root lhipjoint rhipjoint lowerback
    lhipjoint lfemur
    lfemur ltibia
    ltibia lfoot
    lfoot ltoes
    rhipjoint rfemur
    rfemur rtibia
    rtibia rfoot
    rfoot rtoes
    lowerback upperback
    upperback thorax
    thorax lowerneck lclavicle rclavicle
    lowerneck upperneck
    upperneck head
    lclavicle lhumerus
    lhumerus lradius
    lradius lwrist
    lwrist lhand lthumb
    lhand lfingers
    rclavicle rhumerus
    rhumerus rradius
    rradius rwrist
    rwrist rhand rthumb
    rhand rfingers
  end

#!OML:ASF H:\Pregnant\Project 1\Capture day 1\Session 1\femalepreg.ASF
:FULLY-SPECIFIED
:DEGREES
32
root 7.19787 15.5921 21.4558 -156.716 -9.292 -177.275
lowerback -16.2052 1.44268 6.90381
upperback -5.20772 -0.0596767 1.75181
thorax 3.54624 -0.375568 -2.08376
lowerneck -11.5068 8.29783 6.27369
upperneck 30.7333 9.84611 -4.18266
head 12.6582 3.86061 -1.40451
rclavicle 1.28713e-014 4.29375e-014
rhumerus -33.65 -3.72067 -78.2831
rradius 29.7093
rwrist -5.32645
rhand -16.7676 -19.0554
rfingers 7.12502
rthumb 9.45956 -48.8231
lclavicle 1.28713e-014 4.29375e-014
lhumerus -37.8513 -13.6699 90.6284
lradius 28.9939
lwrist 42.0469
lhand -25.8113 -2.24829
lfingers 7.12502
lthumb 0.72803 27.7302
rfemur -33.3963 12.7647 25.646
rtibia 30.96
rfoot -18.0154 -15.7383
rtoes -3.47932
lfemur -53.6933 -13.6606 -9.75396
ltibia 37.5839
lfoot -14.3039 4.37744
ltoes -17.0252
33
root 7.17776 15.5946 21.4331 -156.537 -9.08217 -177.166
lowerback -16.1295 1.37454 6.72622
upperback -5.1594 -0.105044 1.74635
thorax 3.55389 -0.391336 -1.9982
lowerneck -11.6103 8.25257 6.246
upperneck 30.6372 9.77302 -4.12265
head 12.6296 3.8393 -1.38312
rclavicle -3.32964e-015 -3.97569e-015
rhumerus -33.5767 -3.6057 -78.4245
rradius 29.8771
rwrist -5.43049
rhand -16.8149 -19.0086
rfingers 7.12502
rthumb 9.41394 -48.7784
lclavicle -3.32964e-015 -3.97569e-015
lhumerus -37.7295 -13.6618 90.5727
lradius 28.9738
lwrist 42.1117
lhand -25.8946 -2.30642
lfingers 7.12502
lthumb 0.647508 27.6723
rfemur -33.4231 12.7557 25.6609
rtibia 30.7769
rfoot -18.0449 -15.4934
rtoes -3.55948
lfemur -53.9683 -13.6857 -9.47205
ltibia 37.3557
lfoot -14.0308 4.45528
ltoes -16.5464
34
root 7.1571 15.597 21.409 -156.36 -8.86262 -177.055
lowerback -16.0567 1.30539 6.5372
upperback -5.10342 -0.149354 1.73731
thorax 3.57139 -0.405667 -1.90973
lowerneck -11.7086 8.21891 6.2344
upperneck 30.5309 9.71447 -4.0626
head 12.5979 3.8273 -1.36214
rclavicle -2.23633e-015 -2.50469e-014
rhumerus -33.5046 -3.48362 -78.5716
rradius 30.0492
rwrist -5.54193
rhand -16.8507 -18.9618
rfingers 7.12502
rthumb 9.37944 -48.7331
lclavicle -2.23633e-015 -2.50469e-014
lhumerus -37.5965 -13.6797 90.5213
lradius 28.958
lwrist 42.1843
lhand -26.0304 -2.38502
lfingers 7.12502
lthumb 0.516411 27.5941
rfemur -33.4426 12.7476 25.6773
rtibia 30.5943
rfoot -18.0788 -15.2423
rtoes -3.64641
lfemur -54.2174 -13.7063 -9.19308
ltibia 37.1336
lfoot -13.7228 4.5503
ltoes -16.0876
35
root 7.13586 15.599 21.3836 -156.187 -8.63411 -176.941
lowerback -15.9839 1.24376 6.34087
upperback -5.05671 -0.182958 1.71842
thorax 3.58007 -0.415744 -1.82544
lowerneck -11.7451 8.18602 6.23797
upperneck 30.4068 9.65072 -3.99506
head 12.5465 3.81635 -1.34399
rclavicle -6.41081e-015 1.15295e-014
rhumerus -33.4773 -3.37088 -78.7152
rradius 30.2317
rwrist -5.65481
rhand -16.8661 -18.9228
rfingers 7.12502
rthumb 9.36456 -48.6947
lclavicle -6.41081e-015 1.15295e-014
lhumerus -37.4922 -13.737 90.4834
lradius 28.96
lwrist 42.2632
lhand -26.1705 -2.38826
lfingers 7.12502
lthumb 0.381033 27.5911
rfemur -33.4534 12.739 25.6957
rtibia 30.4128
rfoot -18.1177 -14.9851
rtoes -3.75523
lfemur -54.4371 -13.7222 -8.92034
ltibia 36.9175
lfoot -13.3868 4.66308
ltoes -15.6887
36
root 7.11403 15.6007 21.3566 -156.018 -8.39687 -176.822
lowerback -15.9156 1.18668 6.13562
upperback -4.99909 -0.208398 1.69446
thorax 3.60342 -0.420558 -1.73991
lowerneck -11.7967 8.1549 6.23714
upperneck 30.2797 9.5874 -3.91215
head 12.496 3.80761 -1.31858
rclavicle 1.51573e-014 -4.37326e-015
rhumerus -33.4507 -3.26531 -78.8552
rradius 30.4264
rwrist -5.78398
rhand -16.8499 -18.9174
rfingers 7.12502
rthumb 9.3802 -48.6887
lclavicle 1.51573e-014 -4.37326e-015
lhumerus -37.3697 -13.8195 90.4467
lradius 28.9739
lwrist 42.3401
lhand -26.3237 -2.3985
lfingers 7.12502
lthumb 0.233143 27.5811
rfemur -33.4541 12.7315 25.7181
rtibia 30.233
rfoot -18.1638 -14.7216
rtoes -3.86543
lfemur -54.6258 -13.7292 -8.656
ltibia 36.7095
lfoot -13.0212 4.78706
ltoes -15.3215
37
root 7.09165 15.6018 21.3282 -155.851 -8.15207 -176.699
lowerback -15.8553 1.13316 5.92177
upperback -4.93515 -0.227752 1.66436
thorax 3.63815 -0.42172 -1.65484
lowerneck -11.8482 8.12493 6.22842
upperneck 30.1498 9.52204 -3.80873
head 12.4426 3.79994 -1.28449
rclavicle 6.06293e-015 -1.59028e-014
rhumerus -33.4324 -3.16509 -78.9939
rradius 30.6317
rwrist -5.93546
rhand -16.8045 -18.9378
rfingers 7.12502
rthumb 9.42396 -48.7071
lclavicle 6.06293e-015 -1.59028e-014
lhumerus -37.2384 -13.9173 90.4062
lradius 28.9993
lwrist 42.4072
lhand -26.4517 -2.34447
lfingers 7.12502
lthumb 0.109443 27.6352
rfemur -33.4491 12.7214 25.745
rtibia 30.058
rfoot -18.2191 -14.4495
rtoes -3.97764
lfemur -54.7875 -13.7255 -8.40369
ltibia 36.5168
lfoot -12.61 4.92166
ltoes -14.9973
38
root 7.06871 15.6022 21.2982 -155.687 -7.90173 -176.568
lowerback -15.8005 1.08155 5.69879
upperback -4.86725 -0.243526 1.63294
thorax 3.68036 -0.420868 -1.56533
lowerneck -11.8892 8.09613 6.21676
upperneck 30.0138 9.45615 -3.69399
head 12.384 3.79339 -1.24623
rclavicle -1.36664e-014 2.14687e-014
rhumerus -33.4258 -3.05282 -79.1346
rradius 30.8323
rwrist -6.07877
rhand -16.7839 -18.9299
rfingers 7.12502
rthumb 9.44389 -48.6984
lclavicle -1.36664e-014 2.14687e-014
lhumerus -37.1046 -14.0179 90.3648
lradius 29.0387
lwrist 42.4601
lhand -26.5422 -2.33007
lfingers 7.12502
lthumb 0.0220692 27.6497
rfemur -33.4378 12.7102 25.7801
rtibia 29.8896
rfoot -18.2852 -14.1704
rtoes -4.08828
lfemur -54.9191 -13.699 -8.17323
ltibia 36.3502
lfoot -12.1383 5.05746
ltoes -14.726
39
root 7.04526 15.6016 21.2667 -155.524 -7.64561 -176.428
lowerback -15.7527 1.03393 5.47021
upperback -4.79724 -0.253432 1.5957
thorax 3.72896 -0.417065 -1.47765
lowerneck -11.9268 8.06651 6.20822
upperneck 29.8787 9.38432 -3.56651
head 12.3245 3.78597 -1.2049
rclavicle -1.59028e-015 7.55382e-015
rhumerus -33.4296 -2.9351 -79.2808
rradius 31.0264
rwrist -6.22292
rhand -16.7687 -18.917
rfingers 7.12502
rthumb 9.45849 -48.6848
lclavicle -1.59028e-015 7.55382e-015
lhumerus -36.9677 -14.1325 90.3176
lradius 29.0877
lwrist 42.4985
lhand -26.6177 -2.29675
lfingers 7.12502
lthumb -0.0508386 27.683
rfemur -33.4246 12.6967 25.8242
rtibia 29.7293
rfoot -18.3616 -13.8813
rtoes -4.19286
lfemur -55.0217 -13.6305 -7.98099
ltibia 36.2241
lfoot -11.6055 5.18024
ltoes -14.5291
40
root 7.02118 15.6002 21.2336 -155.361 -7.38378 -176.28
lowerback -15.7151 0.985196 5.23123
upperback -4.72417 -0.264333 1.56058
thorax 3.7862 -0.413761 -1.38206
lowerneck -11.962 8.03994 6.20111
upperneck 29.7473 9.31547 -3.43691
head 12.2665 3.77977 -1.16289
rclavicle 7.35503e-015 -3.97569e-016
rhumerus -33.435 -2.79892 -79.4268
rradius 31.2051
rwrist -6.34878
rhand -16.7467 -18.9079
rfingers 7.12502
rthumb 9.47977 -48.6747
lclavicle 7.35503e-015 -3.97569e-016
lhumerus -36.8281 -14.2503 90.2724
lradius 29.144
lwrist 42.5246
lhand -26.6929 -2.29501
lfingers 7.12502
lthumb -0.123438 27.6847
rfemur -33.408 12.6753 25.8791
rtibia 29.575
rfoot -18.4502 -13.5755
rtoes -4.29319
lfemur -55.0917 -13.5144 -7.83617
ltibia 36.1522
lfoot -11.0386 5.29
ltoes -14.4048
